<mxfile host="app.diagrams.net" agent="Mozilla/5.0 (Windows NT 10.0; Win64; x64) AppleWebKit/537.36 (KHTML, like Gecko) Chrome/132.0.0.0 Safari/537.36 OPR/117.0.0.0 (Edition std-2)" version="26.1.1">
  <diagram name="PÃ¡gina-1" id="QZRI5XEX4v3icSLjuebx">
    <mxGraphModel dx="1390" dy="762" grid="1" gridSize="10" guides="1" tooltips="1" connect="1" arrows="1" fold="1" page="1" pageScale="1" pageWidth="827" pageHeight="1169" math="0" shadow="0">
      <root>
        <mxCell id="0" />
        <mxCell id="1" parent="0" />
        <mxCell id="OdFzUex_ETXGbU3qXnvS-1" value="Inicio" style="rounded=1;whiteSpace=wrap;html=1;" vertex="1" parent="1">
          <mxGeometry x="200" y="40" width="120" height="60" as="geometry" />
        </mxCell>
        <mxCell id="OdFzUex_ETXGbU3qXnvS-14" value="" style="edgeStyle=orthogonalEdgeStyle;rounded=0;orthogonalLoop=1;jettySize=auto;html=1;" edge="1" parent="1" source="OdFzUex_ETXGbU3qXnvS-10" target="OdFzUex_ETXGbU3qXnvS-13">
          <mxGeometry relative="1" as="geometry" />
        </mxCell>
        <mxCell id="OdFzUex_ETXGbU3qXnvS-10" value="TempC =&amp;nbsp;&lt;div&gt;(TempF - 32) / 1.8&lt;/div&gt;" style="rounded=0;whiteSpace=wrap;html=1;" vertex="1" parent="1">
          <mxGeometry x="206" y="310" width="120" height="60" as="geometry" />
        </mxCell>
        <mxCell id="OdFzUex_ETXGbU3qXnvS-24" style="edgeStyle=orthogonalEdgeStyle;rounded=0;orthogonalLoop=1;jettySize=auto;html=1;entryX=0.5;entryY=0;entryDx=0;entryDy=0;" edge="1" parent="1" source="OdFzUex_ETXGbU3qXnvS-13" target="OdFzUex_ETXGbU3qXnvS-23">
          <mxGeometry relative="1" as="geometry" />
        </mxCell>
        <mxCell id="OdFzUex_ETXGbU3qXnvS-13" value="TempC" style="shape=parallelogram;perimeter=parallelogramPerimeter;whiteSpace=wrap;html=1;fixedSize=1;rounded=0;" vertex="1" parent="1">
          <mxGeometry x="206" y="450" width="120" height="60" as="geometry" />
        </mxCell>
        <mxCell id="OdFzUex_ETXGbU3qXnvS-16" value="&lt;div&gt;&lt;br&gt;&lt;/div&gt;&lt;div&gt;TempF&lt;/div&gt;" style="html=1;strokeWidth=2;shape=manualInput;whiteSpace=wrap;rounded=1;size=26;arcSize=11;" vertex="1" parent="1">
          <mxGeometry x="210" y="160" width="100" height="60" as="geometry" />
        </mxCell>
        <mxCell id="OdFzUex_ETXGbU3qXnvS-19" style="edgeStyle=orthogonalEdgeStyle;rounded=0;orthogonalLoop=1;jettySize=auto;html=1;entryX=0.45;entryY=0.017;entryDx=0;entryDy=0;entryPerimeter=0;" edge="1" parent="1" source="OdFzUex_ETXGbU3qXnvS-16" target="OdFzUex_ETXGbU3qXnvS-10">
          <mxGeometry relative="1" as="geometry" />
        </mxCell>
        <mxCell id="OdFzUex_ETXGbU3qXnvS-20" style="edgeStyle=orthogonalEdgeStyle;rounded=0;orthogonalLoop=1;jettySize=auto;html=1;entryX=0.5;entryY=0.267;entryDx=0;entryDy=0;entryPerimeter=0;" edge="1" parent="1" source="OdFzUex_ETXGbU3qXnvS-1" target="OdFzUex_ETXGbU3qXnvS-16">
          <mxGeometry relative="1" as="geometry" />
        </mxCell>
        <mxCell id="OdFzUex_ETXGbU3qXnvS-23" value="Fim" style="rounded=1;whiteSpace=wrap;html=1;" vertex="1" parent="1">
          <mxGeometry x="206" y="570" width="120" height="60" as="geometry" />
        </mxCell>
        <mxCell id="OdFzUex_ETXGbU3qXnvS-25" value="&lt;font style=&quot;font-size: 20px;&quot;&gt;Narrativa Abaixo!&lt;/font&gt;&lt;div&gt;----------------------------------------------------------&lt;/div&gt;&lt;div&gt;&lt;font style=&quot;font-size: 20px;&quot;&gt;1. Receber Temperatura em Fahrenheit (tempF)&lt;/font&gt;&lt;/div&gt;&lt;div&gt;&lt;font style=&quot;font-size: 20px;&quot;&gt;2. Calcular Celcius a partir da formula&lt;/font&gt;&lt;/div&gt;&lt;div&gt;&lt;font style=&quot;font-size: 20px;&quot;&gt;3. Mostrar resultado obtivo&lt;/font&gt;&lt;/div&gt;&lt;div&gt;&lt;font style=&quot;font-size: 20px;&quot;&gt;-------------------------------------------------------------------&lt;/font&gt;&lt;/div&gt;" style="text;html=1;align=center;verticalAlign=middle;resizable=0;points=[];autosize=1;strokeColor=none;fillColor=none;fontSize=23;" vertex="1" parent="1">
          <mxGeometry x="340" y="70" width="470" height="180" as="geometry" />
        </mxCell>
      </root>
    </mxGraphModel>
  </diagram>
</mxfile>
